<svg class="svg-icon" style="width: 200px; height: 230px;vertical-align: middle;fill: currentColor;overflow: hidden;" viewBox="0 0 1024 1024" version="1.1" xmlns="http://www.w3.org/2000/svg"><path d="M192 448h224v32H192v-32z m0 96h448v32H192v-32z m0 96h448v32H192v-32z m0 96h448v32H192v-32z m0 96h448v32H192v-32z" fill="#aa79ff" /><path d="M480 256h128v32h-128V256z m352 96h-256l32 32h224v-32z m-160 96h160v32h-160v-32z m0 96h160v32h-160v-32z m0 96h160v32h-160v-32z" fill="#ff8b2f" /><path d="M877.248 256L672 50.752C660.672 39.424 659.872 32 640 32h-272A48 48 0 0 0 320 80V224H176A48 48 0 0 0 128 272v672A48 48 0 0 0 176 992h480a48 48 0 0 0 48-48V800h144a48 48 0 0 0 48-48V288c0-20.224-7.424-20.672-18.752-32zM672 96l160 160h-144a16 16 0 0 1-16-16V96z m0 848c0 8.8-7.2 16-16 16h-480a16 16 0 0 1-16-16v-672a16 16 0 0 1 16-16H448v176a48 48 0 0 0 48 48H672v464z m-192-512V288l160 160h-144a16 16 0 0 1-16-16z m384 320c0 8.8-7.2 16-16 16H704v-288c0-20.224-7.424-20.672-18.752-32L480 242.752C468.672 231.424 467.872 224 448 224h-96V80a16 16 0 0 1 16-16H640v176A48 48 0 0 0 688 288H864v464z" fill="#413A4D" /></svg>